<mxfile host="app.diagrams.net" modified="2023-03-04T13:31:40.697Z" agent="5.0 (Windows NT 10.0; Win64; x64) AppleWebKit/537.36 (KHTML, like Gecko) Chrome/110.0.0.0 Safari/537.36" etag="UR_uwYN6UnS0AhV3Wteg" version="21.0.2" type="github">
  <diagram name="Page-1" id="74e2e168-ea6b-b213-b513-2b3c1d86103e">
    <mxGraphModel dx="1434" dy="1646" grid="1" gridSize="10" guides="1" tooltips="1" connect="1" arrows="1" fold="1" page="1" pageScale="1" pageWidth="1100" pageHeight="850" background="none" math="0" shadow="0">
      <root>
        <mxCell id="0" />
        <mxCell id="1" parent="0" />
        <mxCell id="XTBFOyJ9PCdQ3Au2TNRI-3" value="" style="edgeStyle=orthogonalEdgeStyle;rounded=0;orthogonalLoop=1;jettySize=auto;html=1;" edge="1" parent="1" source="XTBFOyJ9PCdQ3Au2TNRI-1" target="XTBFOyJ9PCdQ3Au2TNRI-2">
          <mxGeometry relative="1" as="geometry" />
        </mxCell>
        <mxCell id="XTBFOyJ9PCdQ3Au2TNRI-1" value="Define the requirements and constrains for the chair design" style="rounded=0;whiteSpace=wrap;html=1;" vertex="1" parent="1">
          <mxGeometry x="170" y="160" width="180" height="110" as="geometry" />
        </mxCell>
        <mxCell id="XTBFOyJ9PCdQ3Au2TNRI-5" value="" style="edgeStyle=orthogonalEdgeStyle;rounded=0;orthogonalLoop=1;jettySize=auto;html=1;" edge="1" parent="1" source="XTBFOyJ9PCdQ3Au2TNRI-2" target="XTBFOyJ9PCdQ3Au2TNRI-4">
          <mxGeometry relative="1" as="geometry" />
        </mxCell>
        <mxCell id="XTBFOyJ9PCdQ3Au2TNRI-2" value="Determine the structural requirements for the chair&amp;nbsp;" style="whiteSpace=wrap;html=1;rounded=0;" vertex="1" parent="1">
          <mxGeometry x="175" y="300" width="170" height="107.5" as="geometry" />
        </mxCell>
        <mxCell id="XTBFOyJ9PCdQ3Au2TNRI-9" value="" style="edgeStyle=orthogonalEdgeStyle;rounded=0;orthogonalLoop=1;jettySize=auto;html=1;entryX=0;entryY=0.5;entryDx=0;entryDy=0;" edge="1" parent="1" source="XTBFOyJ9PCdQ3Au2TNRI-4" target="XTBFOyJ9PCdQ3Au2TNRI-10">
          <mxGeometry relative="1" as="geometry">
            <mxPoint x="410" y="485" as="targetPoint" />
          </mxGeometry>
        </mxCell>
        <mxCell id="XTBFOyJ9PCdQ3Au2TNRI-4" value="Create initial 3D model for the chair using CAD" style="whiteSpace=wrap;html=1;rounded=0;" vertex="1" parent="1">
          <mxGeometry x="195" y="440" width="130" height="90" as="geometry" />
        </mxCell>
        <mxCell id="XTBFOyJ9PCdQ3Au2TNRI-7" value="" style="edgeStyle=orthogonalEdgeStyle;rounded=0;orthogonalLoop=1;jettySize=auto;html=1;" edge="1" parent="1" source="XTBFOyJ9PCdQ3Au2TNRI-6" target="XTBFOyJ9PCdQ3Au2TNRI-1">
          <mxGeometry relative="1" as="geometry" />
        </mxCell>
        <mxCell id="XTBFOyJ9PCdQ3Au2TNRI-6" value="Design of a chair" style="ellipse;whiteSpace=wrap;html=1;" vertex="1" parent="1">
          <mxGeometry x="200" y="40" width="120" height="80" as="geometry" />
        </mxCell>
        <mxCell id="XTBFOyJ9PCdQ3Au2TNRI-13" value="Yes" style="edgeStyle=orthogonalEdgeStyle;rounded=0;orthogonalLoop=1;jettySize=auto;html=1;" edge="1" parent="1" source="XTBFOyJ9PCdQ3Au2TNRI-10" target="XTBFOyJ9PCdQ3Au2TNRI-12">
          <mxGeometry relative="1" as="geometry" />
        </mxCell>
        <mxCell id="XTBFOyJ9PCdQ3Au2TNRI-14" value="No" style="edgeStyle=orthogonalEdgeStyle;rounded=0;orthogonalLoop=1;jettySize=auto;html=1;entryX=0;entryY=0.5;entryDx=0;entryDy=0;" edge="1" parent="1" source="XTBFOyJ9PCdQ3Au2TNRI-10" target="XTBFOyJ9PCdQ3Au2TNRI-1">
          <mxGeometry relative="1" as="geometry">
            <Array as="points">
              <mxPoint x="455" y="560" />
              <mxPoint x="150" y="560" />
              <mxPoint x="150" y="215" />
            </Array>
          </mxGeometry>
        </mxCell>
        <mxCell id="XTBFOyJ9PCdQ3Au2TNRI-10" value="Does the chair meet requirements?" style="rhombus;whiteSpace=wrap;html=1;" vertex="1" parent="1">
          <mxGeometry x="370" y="430" width="170" height="110" as="geometry" />
        </mxCell>
        <mxCell id="XTBFOyJ9PCdQ3Au2TNRI-16" value="" style="edgeStyle=orthogonalEdgeStyle;rounded=0;orthogonalLoop=1;jettySize=auto;html=1;" edge="1" parent="1" source="XTBFOyJ9PCdQ3Au2TNRI-12" target="XTBFOyJ9PCdQ3Au2TNRI-15">
          <mxGeometry relative="1" as="geometry" />
        </mxCell>
        <mxCell id="XTBFOyJ9PCdQ3Au2TNRI-12" value="Identify areas of the chair that can be optimized&amp;nbsp;" style="whiteSpace=wrap;html=1;" vertex="1" parent="1">
          <mxGeometry x="395" y="50" width="120" height="60" as="geometry" />
        </mxCell>
        <mxCell id="XTBFOyJ9PCdQ3Au2TNRI-17" value="Yes" style="edgeStyle=orthogonalEdgeStyle;rounded=0;orthogonalLoop=1;jettySize=auto;html=1;" edge="1" parent="1" source="XTBFOyJ9PCdQ3Au2TNRI-15">
          <mxGeometry relative="1" as="geometry">
            <mxPoint x="150" y="220" as="targetPoint" />
            <Array as="points">
              <mxPoint x="678" y="20" />
              <mxPoint x="150" y="20" />
            </Array>
          </mxGeometry>
        </mxCell>
        <mxCell id="XTBFOyJ9PCdQ3Au2TNRI-19" value="No" style="edgeStyle=orthogonalEdgeStyle;rounded=0;orthogonalLoop=1;jettySize=auto;html=1;" edge="1" parent="1" source="XTBFOyJ9PCdQ3Au2TNRI-15" target="XTBFOyJ9PCdQ3Au2TNRI-18">
          <mxGeometry relative="1" as="geometry" />
        </mxCell>
        <mxCell id="XTBFOyJ9PCdQ3Au2TNRI-15" value="Improvements" style="rhombus;whiteSpace=wrap;html=1;" vertex="1" parent="1">
          <mxGeometry x="580" y="40" width="195" height="80" as="geometry" />
        </mxCell>
        <mxCell id="XTBFOyJ9PCdQ3Au2TNRI-21" value="" style="edgeStyle=orthogonalEdgeStyle;rounded=0;orthogonalLoop=1;jettySize=auto;html=1;" edge="1" parent="1" source="XTBFOyJ9PCdQ3Au2TNRI-18" target="XTBFOyJ9PCdQ3Au2TNRI-20">
          <mxGeometry relative="1" as="geometry" />
        </mxCell>
        <mxCell id="XTBFOyJ9PCdQ3Au2TNRI-18" value="Create prototype" style="whiteSpace=wrap;html=1;" vertex="1" parent="1">
          <mxGeometry x="617.5" y="210" width="120" height="60" as="geometry" />
        </mxCell>
        <mxCell id="XTBFOyJ9PCdQ3Au2TNRI-23" value="" style="edgeStyle=orthogonalEdgeStyle;rounded=0;orthogonalLoop=1;jettySize=auto;html=1;" edge="1" parent="1" source="XTBFOyJ9PCdQ3Au2TNRI-20" target="XTBFOyJ9PCdQ3Au2TNRI-22">
          <mxGeometry relative="1" as="geometry" />
        </mxCell>
        <mxCell id="XTBFOyJ9PCdQ3Au2TNRI-20" value="Test the prototype for strength, stability and comfort" style="whiteSpace=wrap;html=1;" vertex="1" parent="1">
          <mxGeometry x="617.5" y="350" width="120" height="60" as="geometry" />
        </mxCell>
        <mxCell id="XTBFOyJ9PCdQ3Au2TNRI-25" value="" style="edgeStyle=orthogonalEdgeStyle;rounded=0;orthogonalLoop=1;jettySize=auto;html=1;" edge="1" parent="1" source="XTBFOyJ9PCdQ3Au2TNRI-22" target="XTBFOyJ9PCdQ3Au2TNRI-24">
          <mxGeometry relative="1" as="geometry" />
        </mxCell>
        <mxCell id="XTBFOyJ9PCdQ3Au2TNRI-22" value="Evaluate the prototype and test results" style="whiteSpace=wrap;html=1;" vertex="1" parent="1">
          <mxGeometry x="617.5" y="490" width="120" height="60" as="geometry" />
        </mxCell>
        <mxCell id="XTBFOyJ9PCdQ3Au2TNRI-27" value="Yes" style="edgeStyle=orthogonalEdgeStyle;rounded=0;orthogonalLoop=1;jettySize=auto;html=1;entryX=0;entryY=0.5;entryDx=0;entryDy=0;" edge="1" parent="1" source="XTBFOyJ9PCdQ3Au2TNRI-24" target="XTBFOyJ9PCdQ3Au2TNRI-18">
          <mxGeometry relative="1" as="geometry">
            <Array as="points">
              <mxPoint x="560" y="580" />
              <mxPoint x="560" y="240" />
            </Array>
          </mxGeometry>
        </mxCell>
        <mxCell id="XTBFOyJ9PCdQ3Au2TNRI-29" value="No" style="edgeStyle=orthogonalEdgeStyle;rounded=0;orthogonalLoop=1;jettySize=auto;html=1;" edge="1" parent="1" source="XTBFOyJ9PCdQ3Au2TNRI-24" target="XTBFOyJ9PCdQ3Au2TNRI-28">
          <mxGeometry relative="1" as="geometry" />
        </mxCell>
        <mxCell id="XTBFOyJ9PCdQ3Au2TNRI-24" value="Modifications to be made based on tests and feedback?" style="rhombus;whiteSpace=wrap;html=1;" vertex="1" parent="1">
          <mxGeometry x="775" y="455" width="195" height="130" as="geometry" />
        </mxCell>
        <mxCell id="XTBFOyJ9PCdQ3Au2TNRI-31" value="" style="edgeStyle=orthogonalEdgeStyle;rounded=0;orthogonalLoop=1;jettySize=auto;html=1;" edge="1" parent="1" source="XTBFOyJ9PCdQ3Au2TNRI-28" target="XTBFOyJ9PCdQ3Au2TNRI-30">
          <mxGeometry relative="1" as="geometry" />
        </mxCell>
        <mxCell id="XTBFOyJ9PCdQ3Au2TNRI-28" value="Finalize the design and prepare for production creating production-ready CAD files" style="whiteSpace=wrap;html=1;" vertex="1" parent="1">
          <mxGeometry x="801.25" y="250" width="142.5" height="90" as="geometry" />
        </mxCell>
        <mxCell id="XTBFOyJ9PCdQ3Au2TNRI-33" value="" style="edgeStyle=orthogonalEdgeStyle;rounded=0;orthogonalLoop=1;jettySize=auto;html=1;" edge="1" parent="1" source="XTBFOyJ9PCdQ3Au2TNRI-30" target="XTBFOyJ9PCdQ3Au2TNRI-32">
          <mxGeometry relative="1" as="geometry" />
        </mxCell>
        <mxCell id="XTBFOyJ9PCdQ3Au2TNRI-30" value="Select material suppliers" style="whiteSpace=wrap;html=1;" vertex="1" parent="1">
          <mxGeometry x="812.5" y="120" width="120" height="60" as="geometry" />
        </mxCell>
        <mxCell id="XTBFOyJ9PCdQ3Au2TNRI-32" value="Start the production" style="ellipse;whiteSpace=wrap;html=1;" vertex="1" parent="1">
          <mxGeometry x="832.5" y="-30" width="80" height="80" as="geometry" />
        </mxCell>
      </root>
    </mxGraphModel>
  </diagram>
</mxfile>
